<mxfile host="app.diagrams.net" modified="2024-04-20T18:26:09.289Z" agent="Mozilla/5.0 (Windows NT 10.0; Win64; x64) AppleWebKit/537.36 (KHTML, like Gecko) Chrome/124.0.0.0 Safari/537.36" version="24.2.7" etag="t_ibuuww5KkQWBEPCgx-" type="github">
  <diagram name="PÃ¡gina-1" id="bFw2n0CTVQ-9Ygz7J6Y7">
    <mxGraphModel>
      <root>
        <mxCell id="0" />
        <mxCell id="1" parent="0" />
      </root>
    </mxGraphModel>
  </diagram>
</mxfile>
